# xmcd CD database file
#
# Track frame offsets:
#	150
#	15007
#	35275
#	53550
#	67900
#	80537
#
# Disc length: 1279 seconds
#
# Revision: 0
# Processed by: cddbd v1.5.2PL0 Copyright (c) Steve Scherf et al.
# Submitted via: CDex 1.70beta3
#
DISCID=3404fd06
DTITLE=ZINGI - ZINGI
DYEAR=1991
DGENRE=JRap
TTITLE0=HINOMARU
TTITLE1=暴走デンジャラス
TTITLE2=平和（ピース）の住人
TTITLE3=湾岸役者
TTITLE4=暴力教室
TTITLE5=東京仁義一家
EXTD=YEAR: 1991
EXTT0=
EXTT1=
EXTT2=
EXTT3=
EXTT4=
EXTT5=
PLAYORDER=
